<svg xmlns="http://www.w3.org/2000/svg" version="1.1" xmlns:xlink="http://www.w3.org/1999/xlink" width="512" height="512" x="0" y="0" viewBox="0 0 64 64" style="enable-background:new 0 0 512 512" xml:space="preserve" class=""><g><path d="M33 42h4v2h-4z" fill="#1f2f46" opacity="1" data-original="#000000"></path><path d="m61.742 19.966.516-1.932-22.018-5.872.175-.7a3.012 3.012 0 0 0-2.138-3.626L27.142 4.87a3 3 0 0 0-3.683 2.171l-.152.606L2.258 2.034l-.516 1.932 26.258 7V22H15.531a5.007 5.007 0 0 0-4.961 4.38L8.092 46.2a4.971 4.971 0 0 0 .072 1.668l2.181 10.175A5.025 5.025 0 0 0 15.234 62h33.532a5.027 5.027 0 0 0 4.89-3.953l2.179-10.174a4.952 4.952 0 0 0 .073-1.669L53.43 26.38A5.007 5.007 0 0 0 48.469 22H35v-9.165ZM25.4 7.526a1 1 0 0 1 1.227-.726l11.135 2.971a1 1 0 0 1 .712 1.209l-.167.667L25.24 8.162Zm26.3 50.1A3.017 3.017 0 0 1 48.766 60H15.234a3.017 3.017 0 0 1-2.934-2.372L11.094 52H23v3a3 3 0 0 0 3 3h12a3 3 0 0 0 3-3v-3h11.906ZM14.019 46.951 16.861 28h6.323A2.966 2.966 0 0 0 23 29v21h-8.219ZM49.219 50H41V29a2.966 2.966 0 0 0-.184-1h6.323l2.842 18.951ZM39 29v26a1 1 0 0 1-1 1H26a1 1 0 0 1-1-1V29a1 1 0 0 1 1-1h12a1 1 0 0 1 1 1Zm12.446-2.372 2.478 19.824a2.98 2.98 0 0 1-.044 1L53.334 50h-2.053l.689-2.757a1.01 1.01 0 0 0 .019-.391l-3-20A1 1 0 0 0 48 26H16a1 1 0 0 0-.989.852l-3 20a1.01 1.01 0 0 0 .019.391L12.719 50h-2.053l-.546-2.548a2.973 2.973 0 0 1-.044-1l2.478-19.824A3 3 0 0 1 15.531 24h32.938a3 3 0 0 1 2.977 2.628ZM33 22h-3V11.5l3 .8Z" fill="#1f2f46" opacity="1" data-original="#000000"></path></g></svg>