<svg xmlns="http://www.w3.org/2000/svg" version="1.1" xmlns:xlink="http://www.w3.org/1999/xlink" width="512" height="512" x="0" y="0" viewBox="0 0 128 128" style="enable-background:new 0 0 512 512" xml:space="preserve" class=""><g transform="matrix(1,0,0,1,0,0)"><path d="M3.1 50.363a8.38 8.38 0 0 0 6.2 4.623 9.729 9.729 0 0 0 3.846 10.7 9.776 9.776 0 0 0 0 16.089 9.776 9.776 0 0 0 0 16.089 9.788 9.788 0 0 0 5.568 17.836h90.572a9.788 9.788 0 0 0 5.573-17.839 9.776 9.776 0 0 0 0-16.089 9.776 9.776 0 0 0 0-16.09 9.709 9.709 0 0 0 3.84-10.711 8.4 8.4 0 0 0 2.319-15.851l-7.743-3.762V17.089a4.8 4.8 0 0 0-4.791-4.791H88.165a4.8 4.8 0 0 0-4.791 4.791v3.744l-15.7-7.627a8.365 8.365 0 0 0-7.353 0L6.99 39.122A8.4 8.4 0 0 0 3.1 50.363Zm9.322 7.278a6.261 6.261 0 0 1 .742-2.935 8.505 8.505 0 0 0 1.178-.457l5.652-2.749a6.283 6.283 0 1 1-7.574 6.139Zm82.337-6.219h6.992a9.726 9.726 0 0 0 .046 12.514H90.41a1.75 1.75 0 1 0 0 3.5h11.382a9.759 9.759 0 0 0 0 12.588h-17.48a1.75 1.75 0 0 0 0 3.5h17.48a9.76 9.76 0 0 0 0 12.589h-7.051a1.75 1.75 0 1 0 0 3.5h7.051a9.76 9.76 0 0 0 0 12.589H78.1V99.613h8.534a1.75 1.75 0 0 0 0-3.5H78.1v-5.044a14.085 14.085 0 0 0-22.845-11.045H41.372a1.75 1.75 0 0 0 0 3.5H52.1a14.011 14.011 0 0 0-2.2 7.545V112.2H26.208a9.76 9.76 0 0 0 0-12.589h18.133a1.75 1.75 0 1 0 0-3.5H26.208a9.76 9.76 0 0 0 0-12.589h5.648a1.75 1.75 0 0 0 0-3.5h-5.648a9.762 9.762 0 0 0 .014-12.574l18.115.036a1.75 1.75 0 0 0 0-3.5l-18.143-.034a9.742 9.742 0 0 0 .064-12.535h10.309a1.75 1.75 0 0 0 0-3.5h-9.189L64 30.122l36.638 17.8h-5.881a1.75 1.75 0 0 0 0 3.5ZM64 80.465a10.616 10.616 0 0 1 10.6 10.6V112.2H53.4V91.069A10.616 10.616 0 0 1 64 80.465ZM12.42 73.73a6.3 6.3 0 0 1 6.285-6.3h.029a6.294 6.294 0 1 1-6.314 6.3Zm0 16.089a6.295 6.295 0 1 1 6.294 6.294 6.3 6.3 0 0 1-6.294-6.294Zm0 16.089a6.295 6.295 0 1 1 6.294 6.294 6.3 6.3 0 0 1-6.294-6.294Zm103.16 0a6.295 6.295 0 1 1-6.294-6.3 6.3 6.3 0 0 1 6.294 6.3Zm0-16.089a6.295 6.295 0 1 1-6.294-6.3 6.3 6.3 0 0 1 6.294 6.3Zm-6.294-9.8a6.294 6.294 0 0 1-.019-12.588h.026a6.295 6.295 0 0 1-.007 12.589Zm0-16.089a6.276 6.276 0 0 1-1.262-12.427l5.641 2.741a8.388 8.388 0 0 0 1.162.45 6.259 6.259 0 0 1-5.541 9.236ZM86.874 17.089a1.277 1.277 0 0 1 1.291-1.289h20.317a1.277 1.277 0 0 1 1.291 1.291V33.66l-22.9-11.126ZM8.519 42.271l53.335-25.917a4.886 4.886 0 0 1 4.292 0l53.34 25.917a4.909 4.909 0 0 1-4.292 8.83L64.768 26.6a1.748 1.748 0 0 0-1.53 0L12.81 51.1a4.909 4.909 0 1 1-4.291-8.831Z" fill="#1f2f46" opacity="1" data-original="#000000" class=""></path><path d="M69.185 105.7a1.75 1.75 0 0 0 1.75-1.75v-7.97a1.75 1.75 0 0 0-3.5 0v7.966a1.749 1.749 0 0 0 1.75 1.754ZM64 58.828a10.256 10.256 0 0 0 9.836-7.413h7.147a1.75 1.75 0 0 0 0-3.5h-6.774a10.23 10.23 0 0 0-20.418 0h-6.774a1.75 1.75 0 0 0 0 3.5h7.147A10.256 10.256 0 0 0 64 58.828Zm0-16.985a6.743 6.743 0 1 1-6.743 6.743A6.751 6.751 0 0 1 64 41.843ZM81.652 63.936H54.888a1.75 1.75 0 1 0 0 3.5h26.764a1.75 1.75 0 0 0 0-3.5Z" fill="#1f2f46" opacity="1" data-original="#000000" class=""></path></g></svg>