<svg xmlns="http://www.w3.org/2000/svg" version="1.1" xmlns:xlink="http://www.w3.org/1999/xlink" width="512" height="512" x="0" y="0" viewBox="0 0 64 64" style="enable-background:new 0 0 512 512" xml:space="preserve" class=""><g><path d="M5 49.55h52.19a2.81 2.81 0 0 0 0-5.62h-.218L43.385 17.321a1.554 1.554 0 0 0-1.447-.878 1.602 1.602 0 0 0-1.433.9l-3.3 6.72L32.2 15.06a1.693 1.693 0 0 0-1.442-.84 1.633 1.633 0 0 0-1.428.864l-4.27 7.988-.814-.959a1.644 1.644 0 0 0-2.699.31l-6.576 12.76-.455-.827a1.012 1.012 0 0 0-1.763.021L5.903 47.55H5a1 1 0 0 0 0 2zm36.957-30.627 4.002 7.838-2.563 2.259a.489.489 0 0 1-.613.024l-1.737-1.304a1.622 1.622 0 0 0-2.11.15l-1.35 1.35-.505-.39zM40.113 29.54l1.47 1.104a2.497 2.497 0 0 0 3.135-.123l2.18-1.922c.087.11 8.533 16.827 8.659 16.896.302.539 1.119.427 1.633.435a.81.81 0 0 1 0 1.62H27.895l8.285-16.867c1.775 1.611 2.683.063 3.933-1.143zm-17.038-5.715.81.952a1.646 1.646 0 0 0 2.686-.288l4.206-7.87 5.354 9.629L25.667 47.55h-3.896l-5.639-10.254zm-9.41 13.134 2.113 3.842c-.254.274-.509.548-.735.788-.394-.379-.872-.836-1.204-1.152a1.69 1.69 0 0 0-1.815-.323zm-3.424 6.583 2.383-1.501c.38.363.877.838 1.238 1.188a1.917 1.917 0 0 0 2.93-.582l2.697 4.903H8.157z" fill="#1f2f46" opacity="1" data-original="#000000" class=""></path></g></svg>