<svg xmlns="http://www.w3.org/2000/svg" version="1.1" xmlns:xlink="http://www.w3.org/1999/xlink" width="512" height="512" x="0" y="0" viewBox="0 0 512.07 512.07" style="enable-background:new 0 0 512 512" xml:space="preserve" class=""><g><path d="m301.52 237.629 94.908 27.913a35.063 35.063 0 0 0 37.274-11.665l23.552 10.044a8.538 8.538 0 0 0 6.708-15.702l-23.194-9.89c3.218-17.977-7.645-35.485-25.182-40.585l-58.564-15.991 4.002-15.846a71.99 71.99 0 0 0-2.347-47.121c31.465-4.797 53.642-33.423 50.425-65.088S378.404-1.549 346.618.08s-56.713 27.895-56.677 59.724a59.115 59.115 0 0 0 6.588 27.221 71.058 71.058 0 0 0-44.279 22.554l-32.845 34.569-112.93-48.102 3.413-6.827a8.537 8.537 0 1 0-15.274-7.628l-3.874 7.757-19.319-8.209a8.534 8.534 0 0 0-6.69 15.702l18.321 7.799-5.547 11.093a8.537 8.537 0 1 0 15.275 7.629l5.973-12.015 108.066 46.012-52.292 55.049c-23.445 24.635-24.408 63.027-2.227 88.806a67.087 67.087 0 0 0 50.347 23.125h29.38l-38.323 62.43-115.971-50.75c-12.982-5-27.58 1.282-32.875 14.146s.653 27.602 13.393 33.188l279.834 122.539a84.48 84.48 0 0 0 31.573 6.178 83.5 83.5 0 0 0 32.623-6.656 25.653 25.653 0 0 0 5.448-44.095 25.65 25.65 0 0 0-25.458-3.145 31.982 31.982 0 0 1-24.815.273L298.9 432.804l3.814-5.973a35.66 35.66 0 0 0 3.959-28.425 30.984 30.984 0 0 0-16.777-19.226h-.085l26.581-48.521a55.407 55.407 0 0 0-36.863-82.039l12.971-15.147a33.255 33.255 0 0 0 9.02 4.156zm48.154-220.492c23.564 0 42.667 19.103 42.667 42.667s-19.103 42.667-42.667 42.667c-.99 0-1.937-.119-2.901-.205a51.001 51.001 0 0 0-10.342-7.424 79.752 79.752 0 0 0-18.057-6.366 41.73 41.73 0 0 1-11.366-28.672c.027-23.553 19.113-42.639 42.666-42.667zm-85.248 104.396c15.856-18.758 42.81-23.591 64.196-11.511 22.98 12.117 18.773 40.218 15.855 51.712l-4.625 18.338c-1.821 7.656 2.73 15.383 10.308 17.502l60.902 16.631a18.338 18.338 0 0 1 11.093 9.182 18.062 18.062 0 0 1 1.459 14.106c-3.169 9.212-12.987 14.338-22.357 11.674l-94.967-27.921a16.11 16.11 0 0 1-8.03-5.299l-.077-.06-.06-.111a16.605 16.605 0 0 1-3.157-16.324l17.161-51.627a8.54 8.54 0 0 0-5.419-10.795 8.54 8.54 0 0 0-10.795 5.419l-9.975 29.995-49.758-21.163zm124.586 352.333a8.535 8.535 0 0 1 11.204 4.616 8.532 8.532 0 0 1-4.505 11.212 66.555 66.555 0 0 1-50.978.469L64.865 367.618a8.493 8.493 0 0 1-4.651-11.153 8.333 8.333 0 0 1 4.514-4.634 8.527 8.527 0 0 1 3.345-.683 7.901 7.901 0 0 1 2.995.58l279.774 122.436a49.059 49.059 0 0 0 38.144-.299h.026zM257.94 247.537h-53.333a8.533 8.533 0 0 0 0 17.066h63.829a38.316 38.316 0 0 1 33.059 57.685l-27.392 49.971-7.595-3.302a8.536 8.536 0 0 0-11.896 8.782 8.538 8.538 0 0 0 5.07 6.869l14.601 6.349c.051 0 .085.077.145.094l8.371 3.61a13.602 13.602 0 0 1 7.501 8.585 18.678 18.678 0 0 1-2.133 14.566l-5.12 8.064-73.574-32.196 42.581-69.342h12.288a8.533 8.533 0 0 0 0-17.066h-61.696a50.482 50.482 0 0 1-37.376-17.161c-16.464-19.16-15.726-47.679 1.707-65.963l56.678-59.657 56.934 24.235-1.766 5.299a33.42 33.42 0 0 0 2.202 26.65z" fill="#1f2f46" opacity="1" data-original="#000000"></path></g></svg>